<svg xmlns="http://www.w3.org/2000/svg" width="383.952" height="383.952" xml:space="preserve"><path fill-rule="evenodd" clip-rule="evenodd" fill="#706f8f" d="M323.209 130.484c10.963 2.936 22.523 1.421 29.246-3.75 4.405-16.172 2.684-37.107-10.498-41.245l-.75-83.239-3-1.5-4.499-.75-3 3.75-.75 81.74c-14.579 4.629-16.048 33.089-6.749 44.994zm7.499-32.246c12.724-7.672 12.196 9.313 11.249 21.747h-11.999l.75-21.747zm49.495 220.472h-17.998c-2.44 3.893-3.47 8.187 1.5 10.498l8.249.75v11.999h-89.989v-11.999l69.742-.75c9.207-16.102-25.719-12.004-39.745-11.248v-5.999l21.747-.75c3.656-6.6 2.498-21.339 2.25-31.496-2.145-2.115-2.246-2.901-6-3.75V171.729L133.483 0 2.25.75C.813 3.214.157 4.004 0 8.249c2.145 2.115 2.246 2.901 6 3.75v95.988l-5.25 2.25v31.496c8.436 4.536 27.497 2.25 39.745 2.25l101.237-.75c1.694-2.912 2.399-5.213 2.25-10.499l16.498 13.499 3 3.75-11.249.75c-8.439 14.307 14.769 12.119 27.747 11.249v11.999h-47.994V161.98l9.749-.75c2.441-3.893 3.47-8.187-1.5-10.499h-17.998c-3.547 6.345-3.295 24.309-1.5 32.996 5.058 2.836 14.954 2.508 23.247 2.25l.75 9.749 3 1.499h17.998l1.5-2.999.75-8.249 21.748-.75c1.694-2.913 2.399-5.213 2.25-10.499l16.498 13.499 3 3.75-41.245.75c-3.548 6.346-3.295 24.309-1.5 32.996 5.058 2.836 14.954 2.508 23.247 2.249l.75 9.749 3 1.5h17.997l1.5-3 .75-8.249 21.747-.75c1.694-2.912 2.399-5.213 2.25-10.498l16.498 13.498 2.999 3.75-41.244.75c-3.548 6.345-3.295 24.309-1.5 32.995 5.058 2.837 14.953 2.509 23.247 2.25l.75 9.749c.999.5 2 .999 2.999 1.5h17.998l1.5-3 .75-8.249 21.747-.75c1.694-2.912 2.399-5.213 2.25-10.499l16.498 13.499 2.999 3.749-41.245.75c-3.547 6.346-3.294 24.31-1.499 32.996 5.058 2.836 14.953 2.508 23.247 2.25v5.999l-15.748.75c-2.837 5.058-2.509 14.953-2.25 23.247l-27.746.75c-4.041 7.283-3.489 29.215-1.5 38.995 2.084 1.121 4.818 1.824 7.938 2.249h31.808l101.237-.749c.987-1.808 1.724-5.254 2.249-9.657v-47.871c-.224-2.19-.475-4.056-.749-5.464l-3.002-1.501zM17.998 86.989c12.765-13.961 38.808-24.056 47.244-41.245l.75-3.75-.75-1.5c-2.47-1.549-3.008-2.155-7.499-2.25L17.998 71.241V11.999h107.986v95.988H34.496l72.741-63.742c2.484-5.407-1.605-8.432-7.499-8.249l-81.74 69.741V86.989zm113.985 44.994H11.999v-11.999h119.985v11.999zm95.988 83.99h-47.994v-11.999h47.994v11.999zm18.748-8.999c-2.927-4.001-7.384-13.551-12.748-14.998l-.75-81.74c-2.894-1.581-7.774-3.853-10.499 0l-.75 74.241c-9.824-6.973-27.99-18.777-30.746-32.246-14.532-7.813-26.962-14.792-36.745-26.997 6.979-8.236 19.901-13.244 24.747-23.247 2.143-5.059-1.779-7.639-7.499-7.499l-25.497 20.998-1.5 1.5c-1.994-5.244-.679-7.59-6.749-8.999V19.498l58.492 50.244 1.5 2.25-11.998 11.249.75 5.249c2.464 1.437 3.254 2.092 7.5 2.25l11.998-10.499h1.5l92.238 80.99c-17.747 15.245-35.498 30.497-53.244 45.743zm29.246 50.994h-47.994v-11.999h47.994v11.999zm-17.248-40.495-2.249-3 52.493-44.994 7.499 5.249c1.209 2.453 1.634 5.43 1.5 9.749-5.243 6.482-13.613 9.913-17.998 17.248 1.355 14.372 13.585 2.937 17.998-.75v67.491c-19.458-14.235-37.681-40.668-59.243-50.993zm17.248 82.489v-11.998h47.994v11.998h-47.994zm95.989 71.992H251.968v-17.998h119.985v17.998zm0-334.458-.75-35.246-3-1.5-4.499-.75-3 3.75-.75 33.746c-14.579 4.629-16.049 33.089-6.749 44.994 10.963 2.936 22.523 1.421 29.247-3.75a62.257 62.257 0 0 0 1.499-7.208V54.474c-1.417-8.17-5.164-14.833-11.998-16.978zm0 34.495h-11.999l.75-21.748c12.723-7.671 12.196 9.314 11.249 21.748zM86.239 18.748l-4.5-.75c-4.252 3.934-8.597 6.329-11.249 11.998 1.811 4.127 2.502 5.648 8.249 6 3.605-3.128 8.272-5.232 10.499-9.749 1.672-3.724.098-6.135-2.999-7.499zm121.485 266.216c-9.748-5.384-14.569 4.497-21.747 8.249l-8.999 8.999c-3.131-9.2-5.799-24.538-16.498-26.247-10.948 9.438-22.311 40.456-13.498 59.243v.75c-13.178-3.549-16.496-19.442-17.998-34.496l6 5.249h5.999l2.25-3.749.75-3.75c-5.688-6.164-12.462-15.834-23.247-16.498h-.75c-9.372 13.958.858 42.916 6.75 52.494-10.089 10.848-7.913 39.877 4.5 47.244 1.033.613 4.664 1.118 9.667 1.499h46.571c1.755-.208 3.058-.456 3.754-.749 8.968-3.771 21.384-39.271 6.749-46.495 5.462-13.206 13.855-31.495 9.747-51.743zm-46.494 11.999c7.901 6.453 7.485 26.436 3.75 35.995l-3 2.25c-10.982-8.74-3.433-26.758-.75-38.245zm25.497 74.991h-49.494c-2.625-7.531-5.522-12.628-5.25-23.997h59.993c.013 11.451-2.72 16.325-5.249 23.997zm-7.499-35.996-1.5-.75c2.821-18.265 8.761-22.673 17.248-33.746 5.465 13.849-8.022 29.739-15.748 34.496zM322.459 66.742c4.405-16.172 2.684-37.107-10.498-41.245l-.75-23.247-3-1.5-4.499-.75-1.5.75c-2.982 5.333-2.506 16.116-2.25 24.747-14.579 4.629-16.049 33.089-6.749 44.994 10.962 2.936 22.523 1.422 29.246-3.749zm-21.747-28.497c12.724-7.672 12.196 9.313 11.249 21.748h-11.999l.75-21.748zM80.24 281.964c13.071-19.498 37.856-50.895 39.745-79.489-2.588-2.582-2.88-3.558-8.249-3.75l-28.497 31.496-1.5-18.747c-1.456-2.965-2.234-3.166-5.249-4.5l-6 3.75.75 29.996-5.25 30.746h-.75c3.705-38.213 1.647-79.507-5.999-113.236l-3-1.5-5.25-.75c-7.822 11.698-10.114 36.076-10.499 53.994h-.75c-2.626-8.349-8.136-20.351-15.748-23.997-12.598 6.187-1.587 38.986 0 51.743L8.996 224.222H3l-3 4.499c2.047 20.573 13.955 33.876 20.248 49.494l3 3v.749l-14.998.75c-4.561 8.199-3.902 26.637-3 37.496 2.644 31.809 6.061 56.385 29.016 63.741h37.726c30.219-5.754 26.19-36.011 30.746-68.241 1.259-8.904.37-25.841-3-32.996l-19.498-.75zm12.748-44.244c.798 6.11-7.925 15.365-10.499 21.747l-1.5.75c1.114-11.754 7.004-14.998 11.999-22.497zm-39.744-38.995c5.234 11.838 2.796 34.189 2.25 47.994h-.75c-2.653-14.09-1.922-31.079-1.5-47.994zm-4.5 73.491h-.75c-4.762-13.733-12.033-27.712-13.499-44.995 7.099 10.545 13.52 29.654 14.249 44.995zm-29.246-21.747c7.307 7.362 14.627 16.643 17.998 27.746-7.952-5.812-15.258-16.995-17.998-27.746zm56.243 119.985c-5.603 2.863-16.813 1.501-24.747 1.5-39.87-.004-34.542-41.209-33.746-77.99h73.491c.539 27.228 2.731 67.43-14.998 76.49zm215.222-162.73-14.998 14.248.75 5.249c2.465 1.438 3.254 2.093 7.499 2.25 4.912-4.442 12.017-7.974 14.998-14.248l.75-3.749c-2.74-2.814-3.004-3.773-8.999-3.75z"/></svg>