<svg xmlns="http://www.w3.org/2000/svg" width="409.635" height="409.635" xml:space="preserve"><path fill-rule="evenodd" clip-rule="evenodd" fill="#706f8f" d="M3.2 391.234c5.721 9.511 73.451 5.602 92.008 5.601 79.644-.005 144.884-.002 224.819 0 16.807 0 76.059 3.902 84.007-3.2 2.79-1.609 4.563-6.294 5.601-12.347V344.84a68.969 68.969 0 0 0-.8-4.81c-1.066-.534-2.134-1.066-3.2-1.601-12.149-3.8-8.601 33.717-8.001 45.604l-24.002.8v-90.408c-1.643-3.512-5.742-3.003-9.601-2.399-7.709 15.015-2.612 70.958-2.4 92.808h-43.204v-.8l13.602-16.002-13.602-83.207 1.601-3.2c3.793.197 7.4 1.197 12.801 0l16.002-31.203c20.303 5.885 44.446 12.877 48.804 35.203l.801 33.604c3.393 1.846 4.324 2.034 8.801 1.6 1.7-3.068 2.246-7.534 2.399-12.428v-11.574c-.031-37.217-18.533-42.116-44.804-52.805l-32.803-12.801V220.02c6.456-8.228 13.334-14.03 15.201-27.202 20.667-4.806 19.087-17.009 13.602-33.603-.534-10.933-1.066-21.87-1.601-32.803-11.489-38.209-57.516-53.466-92.808-27.203-.518-6.286-3.475-8.039-4.801-12.001V68.806c-.147-11.495-3.393-21.282-8-28.803-17.225-28.107-62.901-35.232-89.608-11.201-8.175 7.356-15.754 21.188-16.801 35.203v23.202c-1.265 3.661-4.127 5.58-4.8 11.201h-.8c-7.062-4.804-16.029-12.503-27.202-10.401-6.177 12.32 10.87 12.756 18.401 18.401 12.57 9.423 17.448 23.365 17.602 45.604-6.217-6.916-10.227-16.753-19.202-20.802h-7.201l-24.002 11.201c-9.158 2.759-33.192.169-37.603 8-.8.534-1.601 1.066-2.4 1.6-7.532-18.819 9.913-40.857 19.202-47.204 5.471-3.738 12.682-3.627 16.001-9.601v-4c-1.45-2.521-2.238-2.703-4.801-4-21.945 7.495-37.289 21.475-42.403 45.604l-.8 27.203c-6.008 20.358-4.502 23.571 12.801 32.803 7.676 7.493 7.328 19.305 17.602 27.202v11.201c-27.712 7.102-69.4 19.923-76.807 48.004l-.8 58.405v46.259c.682 3.161 1.702 5.725 3.199 7.347zm57.605-211.218h-.8l-4-4.8c-2.284-5.036.56-7.945 3.2-10.401 2.412 2.495 1.894 10.221 1.6 15.201zm44.004 201.617-15.201-16.802 12.801-76.007h5.6l12.801 76.007-8.801 10.401-7.2 6.401zm.8-130.411L91.208 233.62c-1.441-1.803-1.556-2.77-1.6-6.4 11.199 1.349 20.086 1.349 31.203 0-.369 10.345-9.275 18.784-15.202 24.002zm22.402-8.801 11.201 3.2-11.201 23.202-1.6.8-11.201-8.001c-.192-6.371 9.246-13.264 12.801-19.201zm-23.202 26.403 5.601 4h1.6c-1.529 4.805-4.868 4.502-11.201 4l-1.601-.8-.8-2.4 6.401-4.8zm93.608 116.009h-23.202l-.8-91.208c-2.629-1.533-3.471-2.232-8-2.4-8.123 12.351-3.429 72.772-3.2 93.608H119.21l14.401-18.401-13.601-83.207c.533-.801 1.066-1.601 1.6-2.4 4.277 1.388 6.484 2.605 10.401.8 8.498-4.112 14.486-22.527 18.401-31.203 15.362 6.101 36.73 10.486 44.804 24.003 7.38 12.352 3.362 88.104 3.201 110.408zm60.805-192.816c4.292 11.683 7.583 22.169 17.602 28.002v.8c.352 16.308-37.591 24.385-50.404 29.603h-.8c-2.038-12.48-8.051-30.695-4.801-41.604 3.85.843 6.358 1.902 10.401.801 6.641-3.163 12.273-16.597 14.401-24.002 4.937 2.407 6.639 5.601 13.601 6.4zm-5.599-18.402v-4c1.332-1.6 2.667-3.2 4-4.8 2.412 2.496 1.894 10.221 1.6 15.201-3.102-1.857-3.966-3.091-5.6-6.401zm35.202 59.205v-5.6c11.017 1.833 20.068 1.072 31.203 0v4.8c-13.887 21.14-16.933 22.255-31.203.8zm22.402 41.604c-.533.8-1.066 1.6-1.601 2.399-6.484.525-10.421.923-12.001-4l5.601-4 6.4 3.2 1.601 2.401zm-16.001-14.401-10.401 7.2-2.4 2.4-12.001-24.002 8.001-3.2h2.4l14.401 17.602zm-89.608-80.807h-.8l-15.201-17.602v-7.201c8.102 2.947 21.593 3.22 29.603 0l.8 6.4-14.402 18.403zm5.6 24.002c-2.744 1.349-6.413 1.766-11.201 1.6l-1.6-1.6v-2.4l5.6-4 5.601 2.4c.534 1.332 1.067 2.667 1.6 4zm16.802-33.603 10.4 4c-3.732 7.733-7.468 15.468-11.2 23.202l-12.001-7.201-1.601-2.4 14.402-17.601zm18.401-9.601-1.6 2.4-12.802-4v-10.401c6.734-8.563 14.041-14.258 16.002-28.002h3.2c-4.69 10.134-5.161 24.321-4.8 40.003zm-29.602-16.802c-38.569 15.588-45.727-24.381-44.804-57.605 23.115-.425 39.733-6.516 54.404-15.201l10.401 10.401c.807 30.145.848 53.979-20.001 62.405zm-40.804 3.201c1.411 2.878 1.783 7.034 1.601 12.001l-12.001 4.8-1.6-.8c-4.001-13.042-2.163-31.511-6.4-42.403h3.2c1.552 10.665 6.873 22.475 15.2 26.402zm4.801 23.202 15.201 18.402-12.801 8.801-12.001-23.202 9.601-4.001zm24.002 97.608c-3.441-3.216-5.615-6.804-9.601-9.601l6.4-40.804h6.4c2.133 13.333 4.268 26.67 6.4 40.004l-8 9.601-1.599.8zm41.603 117.61v-90.408c-1.643-3.512-5.742-3.003-9.601-2.399-7.709 15.015-2.612 70.958-2.4 92.808h-23.202c-.302-25.816-5.733-98.366 4.801-112.81 9.152-12.551 28.819-13.377 42.403-21.603 8.182 8.478 8.813 28.516 21.602 32.003 2.576.8 4.795-.28 7.201-1.6l.8 1.6c4.364 6.609-2.335 26.394-4 34.403l-8.001 49.604 10.401 14.401 4 4h-44.004zm73.607-20.801-13.602 16.001c-.8.534-1.6 1.066-2.399 1.601a235771.81 235771.81 0 0 1-15.202-16.002c4.268-25.6 8.535-51.206 12.802-76.807h5.601l12.8 75.207zm17.601-118.41-11.201 24.002-12.001-8.801h-1.6l14.4-18.401 10.402 3.2zm-25.602-28.803c-36.643 9.846-41.722-26.202-40.804-59.205 25.234-.134 37.708-8.77 55.205-14.401l9.601 9.601c.864 32.561.951 57.301-24.002 64.005zm40.804-48.004.8 6.4-3.2 4-2.399.8v-16.001c2.645 1.543 3.426 1.882 4.799 4.801zm-56.805-71.207c36.826-.85 53.685 17.388 52.805 54.405h-.8c-1.984-8.787-11.615-17.326-18.402-21.602-13.963.541-21.473 9.468-33.603 12.801l-30.402 2.4-6.401 6.4c-12.58-30.033 21.259-46.864 36.803-54.404zm-42.403-.799c2.291 4.823-.685 8.567-4.001 10.401l-.8-15.201c2.889 1.351 3.48 1.876 4.801 4.8zm-53.605-72.007c33.553-.499 50.439 19.92 49.604 54.405h-.8c-2.905-8.682-12.188-17.669-20.002-21.602-12.846 1.324-21.09 10.46-33.603 13.602l-29.603 2.4-5.6 5.601c-13.176-31.336 22.705-47.435 40.004-54.406zm-40.804 67.206.8 16.001c-7.312-3.99-6.327-11.209-.8-16.001zm-9.601 72.006 2.4.8 3.2 5.601-3.2 8.801-2.4.8v-16.002zm-1.6 29.603c5.566-2.813 10.742-4.108 14.401-8.801 6.691 6.81 7.741 18.717 15.202 24.803 4.526.834 7.028.071 11.201-.801v1.601c4.518 6.88-3.332 30.495-4.8 40.003l-51.205-19.201V220.02c6.444-7.744 13.948-13.235 15.201-26.403zm-75.206-36.003c24.802-.128 37.446-8.464 54.404-14.401l10.401 10.401c.833 31.606.23 56.844-24.002 63.206-37.298 9.791-41.724-25.584-40.803-59.206zm7.2 84.807c6.474 2.072 12.958 11.966 16.001 17.602l-12.801 9.601-11.201-23.202 8.001-4.001zm-64.006 31.203c8.087-12.918 29.367-16.939 44.004-23.202l16.801 31.203c5.168 1.252 7.431 1.266 12.001-.8l.8 2.4c6.671 12.026-16.928 67.554-12.001 84.807l6.4 8.801 7.201 7.201v.8H48.004l-.8-91.208c-2.629-1.533-3.471-2.232-8-2.4-8.123 12.351-3.429 72.772-3.2 93.608H12.801c-4.595-16.842-3.156-101.057 3.2-111.21z"/></svg>